<svg xmlns="http://www.w3.org/2000/svg" width="328.544" height="92.064" viewBox="0 0 328.544 92.064"><g transform="translate(-826.856 -69.92)"><path d="M34.464.96A20.248,20.248,0,0,1,24.192-1.632a18.926,18.926,0,0,1-7.1-7.1V0H5.856V-70.08H18.72v28.608a19.4,19.4,0,0,1,7.056-7.152A19.95,19.95,0,0,1,36-51.168a18.945,18.945,0,0,1,8.928,2.112,22.425,22.425,0,0,1,6.96,5.664A25.582,25.582,0,0,1,56.4-35.04a31.957,31.957,0,0,1,1.584,10.08,28.577,28.577,0,0,1-1.776,10.176,25.561,25.561,0,0,1-4.944,8.208,23.235,23.235,0,0,1-7.488,5.52A21.746,21.746,0,0,1,34.464.96ZM30.912-9.984a13.316,13.316,0,0,0,5.664-1.2A13.559,13.559,0,0,0,40.992-14.4a14.543,14.543,0,0,0,2.832-4.7,16.27,16.27,0,0,0,1.008-5.76,17.837,17.837,0,0,0-.96-5.856,15.247,15.247,0,0,0-2.736-4.9,13.629,13.629,0,0,0-4.176-3.36,11.271,11.271,0,0,0-5.28-1.248,11.764,11.764,0,0,0-7.728,2.832,18.793,18.793,0,0,0-5.232,6.96v12a10.891,10.891,0,0,0,1.968,3.456,14.305,14.305,0,0,0,2.928,2.64,14.059,14.059,0,0,0,3.552,1.728A12.078,12.078,0,0,0,30.912-9.984ZM80.448.96a19.083,19.083,0,0,1-6.816-1.2A16.384,16.384,0,0,1,68.16-3.6a15.639,15.639,0,0,1-3.6-5.04,15.263,15.263,0,0,1-1.3-6.336,13.958,13.958,0,0,1,1.584-6.576,15.079,15.079,0,0,1,4.416-5.136A21.892,21.892,0,0,1,76.032-30a29.523,29.523,0,0,1,8.64-1.2,37.229,37.229,0,0,1,6.576.576,26.786,26.786,0,0,1,5.712,1.632v-2.88q0-4.992-2.832-7.68t-8.4-2.688a22.249,22.249,0,0,0-7.872,1.44,36.557,36.557,0,0,0-7.872,4.224l-3.936-8.16a37.139,37.139,0,0,1,20.928-6.432q10.848,0,16.848,5.328t6,15.408v15.648a4.521,4.521,0,0,0,.72,2.88,3.155,3.155,0,0,0,2.352.96V0a28.641,28.641,0,0,1-5.664.672A8.577,8.577,0,0,1,101.616-.96a7.016,7.016,0,0,1-2.448-4.32L98.88-8.064a22.263,22.263,0,0,1-8.16,6.72A23.432,23.432,0,0,1,80.448.96ZM84.1-8.448A16.759,16.759,0,0,0,90.288-9.6a11.239,11.239,0,0,0,4.56-3.072A4.621,4.621,0,0,0,96.96-16.32v-5.76a31.5,31.5,0,0,0-4.992-1.392A26.888,26.888,0,0,0,86.784-24a13.743,13.743,0,0,0-8.16,2.256,6.774,6.774,0,0,0-3.168,5.712,6.873,6.873,0,0,0,2.5,5.424A9.06,9.06,0,0,0,84.1-8.448ZM168.576,0H155.712V-28.224q0-6.048-2.112-8.832a6.938,6.938,0,0,0-5.856-2.784,11.016,11.016,0,0,0-3.936.768,14.487,14.487,0,0,0-3.792,2.16A17.573,17.573,0,0,0,136.8-33.6a13.094,13.094,0,0,0-2.112,4.224V0H121.824V-50.3H133.44v9.312A19.053,19.053,0,0,1,141.5-48.48a25.862,25.862,0,0,1,11.9-2.688,15.162,15.162,0,0,1,7.68,1.728,12.479,12.479,0,0,1,4.608,4.512,18.871,18.871,0,0,1,2.256,6.336,41.533,41.533,0,0,1,.624,7.2ZM200.64.96a22.839,22.839,0,0,1-9.6-2.016,22.637,22.637,0,0,1-7.584-5.568,26.021,26.021,0,0,1-4.944-8.3,28.969,28.969,0,0,1-1.776-10.224,30.042,30.042,0,0,1,1.68-10.176,26.708,26.708,0,0,1,4.656-8.256,21.461,21.461,0,0,1,7.1-5.568,20.285,20.285,0,0,1,9.024-2.016,19.067,19.067,0,0,1,10.032,2.688,19.471,19.471,0,0,1,6.96,7.008V-70.08h12.864v55.3a4.766,4.766,0,0,0,.672,2.88,2.987,2.987,0,0,0,2.3.96V0a29.159,29.159,0,0,1-5.472.672A8.917,8.917,0,0,1,220.9-1.056a6.341,6.341,0,0,1-2.5-4.512l-.288-3.168a18.248,18.248,0,0,1-7.536,7.248A21.419,21.419,0,0,1,200.64.96ZM204-9.984a12.078,12.078,0,0,0,3.744-.624,13.194,13.194,0,0,0,3.552-1.776,15.549,15.549,0,0,0,2.928-2.688,11.169,11.169,0,0,0,1.968-3.36v-12a14.047,14.047,0,0,0-2.16-3.888,15.987,15.987,0,0,0-3.168-3.072,16.532,16.532,0,0,0-3.744-2.064,10.64,10.64,0,0,0-3.888-.768,11.56,11.56,0,0,0-5.328,1.248,12.649,12.649,0,0,0-4.176,3.408,16.4,16.4,0,0,0-2.688,4.944,17.546,17.546,0,0,0-.96,5.76,15.877,15.877,0,0,0,1.056,5.856,15.244,15.244,0,0,0,2.88,4.7,13.113,13.113,0,0,0,4.368,3.168A13.457,13.457,0,0,0,204-9.984Z" transform="translate(821 140)" fill="#211859"/><path d="M24.864.96A38.914,38.914,0,0,1,12.48-1.056,30.2,30.2,0,0,1,2.112-6.816l4.8-8.064a41.355,41.355,0,0,0,8.976,4.944,24.063,24.063,0,0,0,8.688,1.68A10.981,10.981,0,0,0,30.624-9.7a4.638,4.638,0,0,0,2.208-4.128A4.124,4.124,0,0,0,30.24-17.76a55.969,55.969,0,0,0-8.448-2.88q-4.9-1.344-8.352-2.592a21.434,21.434,0,0,1-5.568-2.832A9.688,9.688,0,0,1,4.8-29.712a11.646,11.646,0,0,1-.96-4.944,15.652,15.652,0,0,1,1.488-6.912A15.058,15.058,0,0,1,9.5-46.8a19.332,19.332,0,0,1,6.288-3.312,25.544,25.544,0,0,1,7.824-1.152,33.638,33.638,0,0,1,10.608,1.632,25.853,25.853,0,0,1,9.072,5.28l-5.184,7.776a30.124,30.124,0,0,0-7.44-4.224,20.338,20.338,0,0,0-7.152-1.344A10.351,10.351,0,0,0,18.048-40.8a4.675,4.675,0,0,0-2.208,4.32,4.178,4.178,0,0,0,.528,2.208,4.651,4.651,0,0,0,1.68,1.536,16.4,16.4,0,0,0,3.024,1.3q1.872.624,4.656,1.3,5.184,1.344,8.88,2.688a24.175,24.175,0,0,1,6.048,3.072A10.937,10.937,0,0,1,44.112-20.4a12.237,12.237,0,0,1,1.1,5.424A14,14,0,0,1,39.744-3.312Q34.272.96,24.864.96Zm28.8,8.832a24.818,24.818,0,0,0,3.168.72,17.264,17.264,0,0,0,2.592.24,5.5,5.5,0,0,0,2.3-.48,4.934,4.934,0,0,0,1.92-1.68A16.4,16.4,0,0,0,65.376,5.28Q66.24,3.168,67.2,0L47.328-50.3H60.576L74.208-11.136,86.3-50.3H98.4L77.28,9.984a18.011,18.011,0,0,1-6.24,8.64A17.547,17.547,0,0,1,60.1,21.984a20.807,20.807,0,0,1-3.12-.24,19.953,19.953,0,0,1-3.312-.816Z" transform="translate(1057 140)" fill="#d96277"/></g></svg>