<svg xmlns="http://www.w3.org/2000/svg" width="20" height="20" viewBox="0 0 20 20"><path d="M10,8A10,10,0,1,0,20,18,10,10,0,0,0,10,8Zm7.79,6.129H14.464a11.735,11.735,0,0,0-1.742-4.4A8.748,8.748,0,0,1,17.79,14.129ZM13.548,18a19.058,19.058,0,0,1-.173,2.581H6.625a19.292,19.292,0,0,1,0-5.161h6.75A19.058,19.058,0,0,1,13.548,18ZM10,9.29c1.085,0,2.476,1.778,3.149,4.839h-6.3C7.524,11.069,8.915,9.29,10,9.29Zm-2.722.44a11.746,11.746,0,0,0-1.742,4.4H2.21A8.748,8.748,0,0,1,7.278,9.73ZM1.29,18a8.655,8.655,0,0,1,.391-2.581H5.331A20.449,20.449,0,0,0,5.161,18a19.723,19.723,0,0,0,.169,2.581H1.681A8.655,8.655,0,0,1,1.29,18Zm.919,3.871H5.536a11.734,11.734,0,0,0,1.742,4.4,8.748,8.748,0,0,1-5.069-4.4ZM10,26.71c-1.085,0-2.476-1.778-3.149-4.839h6.3c-.673,3.06-2.065,4.839-3.149,4.839Zm2.722-.44a11.746,11.746,0,0,0,1.742-4.4H17.79A8.748,8.748,0,0,1,12.722,26.27Zm1.948-5.69A20.449,20.449,0,0,0,14.839,18a19.723,19.723,0,0,0-.169-2.581h3.649a8.709,8.709,0,0,1,0,5.161Z" transform="translate(0 -8)" fill="#323d3e"/></svg>